<?xml version="1.0" encoding="UTF-8"?>
<!DOCTYPE svg PUBLIC "-//W3C//DTD SVG 1.1//EN" "http://www.w3.org/Graphics/SVG/1.1/DTD/svg11.dtd">
<!-- Creator: CorelDRAW 2021 (64 Bit) -->
<svg xmlns="http://www.w3.org/2000/svg" xml:space="preserve" width="3.8522mm" height="3.8522mm" version="1.1" style="shape-rendering:geometricPrecision; text-rendering:geometricPrecision; image-rendering:optimizeQuality; fill-rule:evenodd; clip-rule:evenodd"
viewBox="0 0 385.22 385.22"
 xmlns:xlink="http://www.w3.org/1999/xlink"
 xmlns:xodm="http://www.corel.com/coreldraw/odm/2003">
 <defs>
  <style type="text/css">
   <![CDATA[
    .fil1 {fill:#422B22}
    .fil2 {fill:#5A3D32}
    .fil0 {fill:#6C473A}
    .fil3 {fill:#7D5542}
   ]]>
  </style>
 </defs>
 <g id="Camada_x0020_1">
  <metadata id="CorelCorpID_0Corel-Layer"/>
  <g id="_2357108809824">
   <g>
    <path class="fil0" d="M86.72 138.77c4.49,-7.94 7.04,-12.62 12.86,-17.79 8.03,5.33 16.12,14.89 24.88,23.47 6.22,6.1 17.54,19.72 24.67,23.32 10.11,1.69 5.27,3.7 15.8,5.74 6.78,1.32 11.57,0.65 17.56,1.49 6.5,0.91 7.75,1.53 9.29,5.01 0.05,0.11 0.14,0.64 0.2,0.77 0.07,0.14 0.26,0.7 0.36,0.85 4.9,7.8 4.56,1.16 7.35,6.74 -31.71,19.4 -63.51,-3.31 -107.12,7.41 -15.91,3.91 -27.19,1.37 -45.92,3.16 3.58,-2.51 2.7,-4.23 4.8,3.14l-0.55 3.23c2.06,1.05 7.8,3.06 7.86,3.09l5.76 3.25c-2.94,5.82 3.68,1.68 -6.13,5.44l-28.22 15.73c0.39,0.26 1.07,0.09 1.26,0.62 0.84,2.41 36.2,5.32 38.53,5.55 -7.64,11.94 -21.35,20.39 -28.98,31.01 14.82,-0.93 25.84,-7.29 38.5,-1.56 -1.18,9.42 -3.88,7.68 -8.35,16.45 -5.32,10.43 1.67,3.58 -7.25,12.85 20.22,-0.76 29.08,-17.26 38.55,1.35 8.22,0.16 25.56,3.53 31.16,-3.15 -7.36,-2.98 -10.22,-4.7 -14.41,-10.2 10.68,-10.72 48.27,-50.75 57.59,-56.46l0.12 81.25c-14.6,-1.57 -23.65,-6.14 -36.2,-9.9l-42.88 -0.69c-2.99,6.87 -5,15.78 -5.3,24.03 6.9,-2.36 21.06,-11.12 30.08,-16.11 2.14,-3.15 -2.28,-4.07 2.4,-2.49 0.34,2.24 0.17,3.43 1.03,5.89 2.81,8.08 0.53,1.86 2.61,5.37l21.71 -1.51c5.97,-0.05 21.32,0.49 23.82,-1.85l-31.3 1.73c13.74,10.14 34.34,-1.27 56.73,0.27 18.5,1.27 44.52,0.34 61.48,-2.09l-0.81 -8.51c7.4,3.2 32.92,21.78 37.53,22.77 -7.17,-11.21 0.77,-9.68 -13.24,-15.1 10.84,-0.14 6.15,-1.1 7.41,-5.59 -4.94,-7.79 -3,-7.07 -14.48,-6.96 17.98,-3.44 1.25,1.35 13.06,-9.33l31.68 9.17c-1.41,-7.57 -8.32,-19.57 -14.4,-23.22 -5.78,-3.48 -22.19,-6.25 -30.4,-5.83 24.02,-9.53 54.87,-0.77 59.63,-1.74 4.45,-0.91 3.19,-0.77 5.59,-2.15 -7.75,-8.76 -23.26,-21.5 -27.24,-27.52l41.62 -5.07c-2.12,-5.17 -27.58,-17.39 -34.62,-22.45 7.91,-8.2 27.77,-7.1 37.53,-14.81 -12.72,-8.81 -30.38,-5.42 -32.48,-14.82 -2.6,-11.67 14.89,-11.32 19.03,-15.79 2.35,-2.52 2.94,1.61 0.02,-3.63l-15.05 -6.24c-13.62,-3.25 -5.33,2.61 -8.36,-6.09 -2.97,-8.67 -2.32,-1.47 2.31,-6.77 6.23,-7.14 16.39,-12.25 20.18,-21.3l-40.3 4.43c1.02,-6.03 1.98,-7.95 6.28,-12.4 -27.13,-2.45 -21.59,2.54 -34.24,-7.92 9.76,-1.13 13.33,0.7 10.66,-8.49 2.3,-9.48 7.42,-20.06 9.49,-31.25 -15.61,4.15 -22.5,16.01 -34.66,19.81 -0.63,-12.22 0.75,-11.92 2.4,-22.12 2.19,-13.46 -3.57,-17.91 10.06,-18.31l0 -4.06c-5.1,1.96 -4.88,0.51 -11.92,1.36 -2.5,9.63 -4.09,10.14 -10.05,15.17 -13.41,11.32 -5.97,9.5 -16.82,8.99 -2.12,-4.75 -2.27,-25.34 -5.23,-36.58 -2.36,2.17 -1.02,2.86 -4.67,6.88 -4.29,4.73 -2.7,4.78 -10.58,4.92l-2.12 3.38c6.16,1.34 1.63,-1.6 5.13,2.66 -2.28,5.27 -3.23,6.68 -5.58,10.19l-6.35 7.55c-1.2,-5.14 -2.36,-6.95 -3.57,-11.55 -2.92,-11.09 1.03,-7.46 -5.94,-19.68 -0.49,-0.85 -1.89,-3.21 -2.37,-3.95 -1.86,-2.8 -0.82,-1.72 -2.48,-3.08 -5.74,15.6 -5.03,6.32 -7.52,17.67 -1.54,6.97 -0.18,11.43 -5.19,20.29 -5.03,-3.02 -4.33,-4.1 -7.85,-9.63 -6.71,-10.55 -7.04,-18.33 -17.46,-26.78 -1.02,10.23 -1.45,10.02 -1.26,19.07 0.63,29.43 -12.33,16.48 -21.14,7.35 -12.57,-13.02 -4.89,-12.24 -15.53,-13.7 1.23,5.08 1.8,4.02 2.91,9.29 0.78,3.73 0.86,7.58 1.42,11.45 1.27,8.84 2.44,11.19 2.47,22.24 -13.34,-5.74 -19.95,-14.78 -33.27,-16.31 1.62,14.53 8.2,19.21 5.37,30.85 -12.56,2.24 -20.79,-8.05 -35.7,-8.57 1.76,4.1 2.63,5.51 4.42,9.36l11.73 17.86c1.18,2.21 1.9,3.58 3.78,6.96 -13.22,-0.37 -26.33,-5.28 -39.74,-3.14 1.57,4.19 0.84,2.08 3.44,5.64 0.11,0.15 3.71,4.28 3.94,4.49 8.93,8.4 31.89,7.74 39.18,6.23zm201.43 125.37c9.99,-13.51 22.19,-35.53 22.82,-58.54l-81.05 -0.59c7.38,9.79 50.9,55.95 58.23,59.13zm-58.13 -85.9l80.83 -0.29c-2.35,-20.98 -12.19,-46.28 -25,-57.66 -2.75,1.7 -52.13,48.22 -55.83,57.95zm-21.04 132.7c33.18,-5.07 36.26,-12.74 58.58,-22.51 -4.02,-8.94 -50.56,-55.25 -58.11,-59.34l-0.47 81.85zm-90.32 -213.59l28.08 29.07c9.28,9.65 18.29,21.51 29.39,28.39l0.38 -81.32c-24.16,3.1 -41.77,12.1 -57.85,23.86zm90.25 57.35c4.67,-2.62 54.83,-53.37 57.22,-57.35 -9.54,-10.36 -38.76,-21.78 -57.05,-23.81l-0.17 81.16zm-109.33 108.74l56.55 -57.6 -80.15 -0.15c-0.56,14.35 11.92,46 19.72,54.42 2.88,3.1 0.34,0.95 3.88,3.33z"/>
    <path class="fil1" d="M287.98 97.82c14.65,6.25 11.54,-3.15 39.97,-8.51 -6.26,20.29 -9.93,9.11 -16.39,24.92 -4.3,4.45 -5.26,6.37 -6.28,12.4l40.3 -4.43c-3.79,9.05 -13.95,14.16 -20.18,21.3 -4.63,5.3 -5.28,-1.9 -2.31,6.77 3.03,8.7 -5.26,2.84 8.36,6.09l15.05 6.24c2.92,5.24 2.33,1.11 -0.02,3.63 -4.14,4.47 -21.63,4.12 -19.03,15.79 2.1,9.4 19.76,6.01 32.48,14.82 -9.76,7.71 -29.62,6.61 -37.53,14.81 7.04,5.06 32.5,17.28 34.62,22.45l-41.62 5.07c3.98,6.02 19.49,18.76 27.24,27.52 -2.4,1.38 -1.14,1.24 -5.59,2.15 -4.76,0.97 -35.61,-7.79 -59.63,1.74 8.21,-0.42 24.62,2.35 30.4,5.83 6.08,3.65 12.99,15.65 14.4,23.22l-31.68 -9.17c-11.81,10.68 4.92,5.89 -13.06,9.33 11.48,-0.11 9.54,-0.83 14.48,6.96 -1.26,4.49 3.43,5.45 -7.41,5.59 14.01,5.42 6.07,3.89 13.24,15.1 -4.61,-0.99 -30.13,-19.57 -37.53,-22.77l0.81 8.51c-0.63,20.7 2.51,6.74 1.15,27.38 -13.27,-6.58 -10.77,-18.72 -27.17,-18.04 -6.96,7.78 -5.92,26.74 -7.09,36.65l-12.5 -25.82c-4.44,-6.76 -4.51,-5.64 -7.93,-7.38 -5.33,3.75 -4.66,-1.84 -7.14,19.35 -0.74,6.28 -3.5,13.95 -7.8,19.09l-8.61 -29.63c-0.13,-0.37 -1.62,-4.06 -1.77,-4.4 -2.04,-4.47 0.45,-0.77 -2.2,-3.96l-10.78 17.99c-2.93,5.65 -7.72,12.02 -11.38,16.82 0.39,-6.04 -1.66,-13.3 -2.18,-19.24 -0.54,-6.32 -1.01,-11.94 -2.33,-17.63 -13.24,-2.27 -14.09,7.48 -30.49,21.8 -1.25,-7.7 3.94,-29.84 -0.26,-38.3 -9.02,4.99 -23.18,13.75 -30.08,16.11 0.3,-8.25 2.31,-17.16 5.3,-24.03l42.88 0.69c-3.87,-4.52 -1.72,-3.11 -7.1,-4.69 -5.6,6.68 -22.94,3.31 -31.16,3.15 -9.47,-18.61 -18.33,-2.11 -38.55,-1.35 8.92,-9.27 1.93,-2.42 7.25,-12.85 4.47,-8.77 7.17,-7.03 8.35,-16.45 -12.66,-5.73 -23.68,0.63 -38.5,1.56 7.63,-10.62 21.34,-19.07 28.98,-31.01 -2.33,-0.23 -37.69,-3.14 -38.53,-5.55 -0.19,-0.53 -0.87,-0.36 -1.26,-0.62l28.22 -15.73c1.64,-5.6 -0.3,-5.6 -1.15,-7.13l-8.46 0.46c-5.86,7.57 -10.65,8.72 -20.5,14.6 -6.48,3.88 -18.3,9.33 -21.83,14.15 4.72,2.27 40.13,4.24 48.68,4.24l-34.35 35.5c16.37,0.48 33.8,-5.53 49.17,-5.87 -5.99,11.32 -22.97,31.9 -25.4,42.33 13.58,-3.16 33.31,-13.84 46.56,-16.93 -4.01,17.23 -13.06,32.08 -16.93,48.69 10.75,-5.69 27.54,-19.7 42.33,-27.52 0,19.42 -4.23,29.26 -4.23,48.68 14.08,-9.42 21.52,-26.3 35.98,-35.98 0,17.08 4.24,32.47 4.24,50.8 10.93,-8.01 16.45,-32.81 27.51,-40.22 0.37,4.37 9.27,38.27 14.82,42.34 1.92,-4 12.29,-37.45 12.7,-42.34 6.2,4.54 8.84,12.02 12.81,18.94 10.28,17.93 6.29,16.92 14.71,19.16 0,-18.94 2.88,-32.42 4.23,-48.68 9.78,6.54 26.04,32.38 35.99,35.98 -0.34,-15.18 -6.03,-33.98 -6.35,-48.68 8.27,2.21 33.43,21.56 42.33,27.52l-16.93 -48.69c15.61,3.64 34.11,15.72 48.68,16.93 -8.81,-13.15 -20.16,-28.42 -27.52,-42.33 15.37,0.34 32.8,6.35 48.69,6.35l-34.36 -35.5 43.07 -2.8c11.2,-1.97 6.41,-3.21 -15.46,-16.34 -6.64,-3.98 -14.47,-7.39 -18.65,-13.1 16.01,-3.73 28.44,-8.97 44.45,-12.7l0 -4.23c-14.95,-1.24 -29.51,-11.46 -44.45,-12.7l0 -4.23c6.32,-1.48 15.25,-7.36 21.05,-10.7 17.94,-10.32 16.9,-6.24 19.16,-14.7 -17.71,0 -33.04,-2.94 -48.68,-4.24 3.98,-5.44 28.27,-24.46 35.98,-35.98 -14.73,1.22 -33.97,6.35 -48.68,6.35 7.95,-15.04 19.28,-26.77 27.52,-42.34 -16.61,3.87 -31.46,12.92 -48.69,16.94 3.26,-6.8 16.34,-39.38 16.94,-46.57 -12.68,3.38 -29.66,22.01 -42.34,25.4 0.7,-8.36 3.6,-17.42 4.24,-26 -13.63,0.4 -7.87,4.85 -10.06,18.31 -1.65,10.2 -3.03,9.9 -2.4,22.12 12.16,-3.8 19.05,-15.66 34.66,-19.81 -2.07,11.19 -7.19,21.77 -9.49,31.25z"/>
    <path class="fil1" d="M33.42 207.42c0.62,-0.11 4.91,-0.67 5.09,-0.74 0.49,-0.18 1.11,-0.41 1.63,-0.64 0.58,-0.26 1.19,-0.62 1.74,-0.89l-15.32 -8.34c25.74,-7.92 28.81,-5.69 28.65,-23.25 -8.62,-0.18 -23.12,-9.11 -27.9,-16.55 29.57,-2.51 37.05,2.51 36.27,-14.51 0,-0.15 -0.15,-0.73 0.02,-1.03l21.46 0.08 1.66 -2.78c-7.29,1.51 -30.25,2.17 -39.18,-6.23 -0.23,-0.21 -3.83,-4.34 -3.94,-4.49 -2.6,-3.56 -1.87,-1.45 -3.44,-5.64 13.41,-2.14 26.52,2.77 39.74,3.14 -1.88,-3.38 -2.6,-4.75 -3.78,-6.96l-11.73 -17.86c-1.79,-3.85 -2.66,-5.26 -4.42,-9.36 14.91,0.52 23.14,10.81 35.7,8.57 2.83,-11.64 -3.75,-16.32 -5.37,-30.85 13.32,1.53 19.93,10.57 33.27,16.31 -0.03,-11.05 -1.2,-13.4 -2.47,-22.24 -0.56,-3.87 -0.64,-7.72 -1.42,-11.45 -1.11,-5.27 -1.68,-4.21 -2.91,-9.29 10.64,1.46 2.96,0.68 15.53,13.7 8.81,9.13 21.77,22.08 21.14,-7.35 -0.19,-9.05 0.24,-8.84 1.26,-19.07 10.42,8.45 10.75,16.23 17.46,26.78 3.52,5.53 2.82,6.61 7.85,9.63 5.01,-8.86 3.65,-13.32 5.19,-20.29 2.49,-11.35 1.78,-2.07 7.52,-17.67 1.66,1.36 0.62,0.28 2.48,3.08 0.48,0.74 1.88,3.1 2.37,3.95 6.97,12.22 3.02,8.59 5.94,19.68 1.21,4.6 2.37,6.41 3.57,11.55l6.35 -7.55c2.35,-3.51 3.3,-4.92 5.58,-10.19 -3.5,-4.26 1.03,-1.32 -5.13,-2.66 -0.62,0.98 -3.89,4.33 -4.23,4.77l-14.82 -46.57c-5.12,3.75 -15,38.29 -16.93,46.57l-6.78 -10.16c-2.3,-3.82 -4.04,-6.83 -6.32,-10.61 -3.76,-6.23 -9.53,-17.98 -14.42,-21.56 -2.99,6.23 -4.23,39.83 -4.23,50.8 -20.67,-13.84 -24.04,-32.23 -38.1,-35.99 0.34,15.56 6.35,31.03 6.35,48.69 -11.32,-5.99 -31.9,-22.97 -42.34,-25.4 3.84,16.48 13.1,30.08 16.94,46.57 -16.15,-3.77 -32.54,-13.18 -48.69,-16.94 4.1,7.74 8.36,12.46 13.56,20.32l13.96 22.02c-15.18,-0.34 -33.98,-6.03 -48.68,-6.35 4.8,7.16 11.11,12.14 17.44,18.54 6.88,6.96 13.76,10.3 18.54,17.44 -15.64,1.3 -30.97,4.24 -48.68,4.24 2.29,8.57 1.52,4.29 17.83,13.91 6.26,3.69 16.18,10.04 22.38,11.49l0 4.23c-8.01,0.67 -41.44,9.94 -46.56,16.93 10.59,0.89 22.03,6.53 33.32,8.47z"/>
    <path class="fil2" d="M261.07 313.18c-16.96,2.43 -42.98,3.36 -61.48,2.09 -22.39,-1.54 -42.99,9.87 -56.73,-0.27l31.3 -1.73c-2.5,2.34 -17.85,1.8 -23.82,1.85l-21.71 1.51c-2.08,-3.51 0.2,2.71 -2.61,-5.37 -0.86,-2.46 -0.69,-3.65 -1.03,-5.89 -4.68,-1.58 -0.26,-0.66 -2.4,2.49 4.2,8.46 -0.99,30.6 0.26,38.3 16.4,-14.32 17.25,-24.07 30.49,-21.8 1.32,5.69 1.79,11.31 2.33,17.63 0.52,5.94 2.57,13.2 2.18,19.24 3.66,-4.8 8.45,-11.17 11.38,-16.82l10.78 -17.99c2.65,3.19 0.16,-0.51 2.2,3.96 0.15,0.34 1.64,4.03 1.77,4.4l8.61 29.63c4.3,-5.14 7.06,-12.81 7.8,-19.09 2.48,-21.19 1.81,-15.6 7.14,-19.35 3.42,1.74 3.49,0.62 7.93,7.38l12.5 25.82c1.17,-9.91 0.13,-28.87 7.09,-36.65 16.4,-0.68 13.9,11.46 27.17,18.04 1.36,-20.64 -1.78,-6.68 -1.15,-27.38z"/>
    <path class="fil2" d="M109.67 177.82l42.85 4.19 -19.67 4.45c-0.66,0.1 -4.15,0.2 -4.85,0.18l-68.64 -1.16c-0.2,-0.61 -0.27,-1.38 -0.41,-1.88 -0.14,-0.51 -0.3,-1.29 -0.49,-1.9l-3.25 -8.14c0.16,17.56 -2.91,15.33 -28.65,23.25l15.32 8.34c-0.55,0.27 -1.16,0.63 -1.74,0.89 -0.52,0.23 -1.14,0.46 -1.63,0.64 -0.18,0.07 -4.47,0.63 -5.09,0.74 3.69,3.09 9.92,3.88 15.36,3l8.46 -0.46c0.85,1.53 2.79,1.53 1.15,7.13 9.81,-3.76 3.19,0.38 6.13,-5.44l-5.76 -3.25c-0.06,-0.03 -5.8,-2.04 -7.86,-3.09l0.55 -3.23c-2.1,-7.37 -1.22,-5.65 -4.8,-3.14 18.73,-1.79 30.01,0.75 45.92,-3.16 43.61,-10.72 75.41,11.99 107.12,-7.41 -2.79,-5.58 -2.45,1.06 -7.35,-6.74 -0.1,-0.15 -0.29,-0.71 -0.36,-0.85 -0.06,-0.13 -0.15,-0.66 -0.2,-0.77 -1.54,-3.48 -2.79,-4.1 -9.29,-5.01 -5.99,-0.84 -10.78,-0.17 -17.56,-1.49 -10.53,-2.04 -5.69,-4.05 -15.8,-5.74 2.44,4.48 3.5,4.77 6.02,10.49l-45.48 -0.44z"/>
    <path class="fil0" d="M55.21 173.56l3.25 8.14c0.19,0.61 0.35,1.39 0.49,1.9 0.14,0.5 0.21,1.27 0.41,1.88l68.64 1.16c0.7,0.02 4.19,-0.08 4.85,-0.18l19.67 -4.45 -42.85 -4.19 -35.69 -1.08 11.08 -35.19 -21.46 -0.08c-0.17,0.3 -0.02,0.88 -0.02,1.03 0.78,17.02 -6.7,12 -36.27,14.51 4.78,7.44 19.28,16.37 27.9,16.55z"/>
    <path class="fil1" d="M216 42.63c7.88,-0.14 6.29,-0.19 10.58,-4.92 3.65,-4.02 2.31,-4.71 4.67,-6.88 2.96,11.24 3.11,31.83 5.23,36.58 10.85,0.51 3.41,2.33 16.82,-8.99 5.96,-5.03 7.55,-5.54 10.05,-15.17 7.04,-0.85 6.82,0.6 11.92,-1.36 1.97,-6 2.11,-10.2 2.11,-18.63l-35.5 34.36c-0.48,-15.05 -4.41,-35.31 -4.71,-49.17 -6.81,4.99 -16.87,25.33 -21.17,34.18z"/>
    <path class="fil2" d="M287.98 97.82c2.67,9.19 -0.9,7.36 -10.66,8.49 12.65,10.46 7.11,5.47 34.24,7.92 6.46,-15.81 10.13,-4.63 16.39,-24.92 -28.43,5.36 -25.32,14.76 -39.97,8.51z"/>
    <path class="fil3" d="M238.51 193.21c-3.19,1.23 -5.93,2.09 -8.77,3.13 -9.75,3.55 -2.82,-1.81 -7.89,4.73l8.29 1.27c7.06,-0.56 4.25,-0.98 9.21,-2.69 12.12,-4.2 6.46,0.06 14.31,-9.16l-14.63 -6.81c-0.14,0.11 -2.83,-3.8 -0.52,9.53z"/>
   </g>
   <g>
    <path class="fil0" d="M86.72 138.77c4.49,-7.94 7.04,-12.62 12.86,-17.79 8.03,5.33 16.12,14.89 24.88,23.47 6.22,6.1 17.54,19.72 24.67,23.32 10.11,1.69 5.27,3.7 15.8,5.74 6.78,1.32 11.57,0.65 17.56,1.49 6.5,0.91 7.75,1.53 9.29,5.01 0.05,0.11 0.14,0.64 0.2,0.77 0.07,0.14 0.26,0.7 0.36,0.85 4.9,7.8 4.56,1.16 7.35,6.74 -31.71,19.4 -63.51,-3.31 -107.12,7.41 -15.91,3.91 -27.19,1.37 -45.92,3.16 3.58,-2.51 2.7,-4.23 4.8,3.14l-0.55 3.23c2.06,1.05 7.8,3.06 7.86,3.09l5.76 3.25c-2.94,5.82 3.68,1.68 -6.13,5.44l-28.22 15.73c0.39,0.26 1.07,0.09 1.26,0.62 0.84,2.41 36.2,5.32 38.53,5.55 -7.64,11.94 -21.35,20.39 -28.98,31.01 14.82,-0.93 25.84,-7.29 38.5,-1.56 -1.18,9.42 -3.88,7.68 -8.35,16.45 -5.32,10.43 1.67,3.58 -7.25,12.85 20.22,-0.76 29.08,-17.26 38.55,1.35 8.22,0.16 25.56,3.53 31.16,-3.15 -7.36,-2.98 -10.22,-4.7 -14.41,-10.2 10.68,-10.72 48.27,-50.75 57.59,-56.46l0.12 81.25c-14.6,-1.57 -23.65,-6.14 -36.2,-9.9l-42.88 -0.69c-2.99,6.87 -5,15.78 -5.3,24.03 6.9,-2.36 21.06,-11.12 30.08,-16.11 2.14,-3.15 -2.28,-4.07 2.4,-2.49 0.34,2.24 0.17,3.43 1.03,5.89 2.81,8.08 0.53,1.86 2.61,5.37l21.71 -1.51c5.97,-0.05 21.32,0.49 23.82,-1.85l-31.3 1.73c13.74,10.14 34.34,-1.27 56.73,0.27 18.5,1.27 44.52,0.34 61.48,-2.09l-0.81 -8.51c7.4,3.2 32.92,21.78 37.53,22.77 -7.17,-11.21 0.77,-9.68 -13.24,-15.1 10.84,-0.14 6.15,-1.1 7.41,-5.59 -4.94,-7.79 -3,-7.07 -14.48,-6.96 17.98,-3.44 1.25,1.35 13.06,-9.33l31.68 9.17c-1.41,-7.57 -8.32,-19.57 -14.4,-23.22 -5.78,-3.48 -22.19,-6.25 -30.4,-5.83 24.02,-9.53 54.87,-0.77 59.63,-1.74 4.45,-0.91 3.19,-0.77 5.59,-2.15 -7.75,-8.76 -23.26,-21.5 -27.24,-27.52l41.62 -5.07c-2.12,-5.17 -27.58,-17.39 -34.62,-22.45 7.91,-8.2 27.77,-7.1 37.53,-14.81 -12.72,-8.81 -30.38,-5.42 -32.48,-14.82 -2.6,-11.67 14.89,-11.32 19.03,-15.79 2.35,-2.52 2.94,1.61 0.02,-3.63l-15.05 -6.24c-13.62,-3.25 -5.33,2.61 -8.36,-6.09 -2.97,-8.67 -2.32,-1.47 2.31,-6.77 6.23,-7.14 16.39,-12.25 20.18,-21.3l-40.3 4.43c1.02,-6.03 1.98,-7.95 6.28,-12.4 -27.13,-2.45 -21.59,2.54 -34.24,-7.92 9.76,-1.13 13.33,0.7 10.66,-8.49 2.3,-9.48 7.42,-20.06 9.49,-31.25 -15.61,4.15 -22.5,16.01 -34.66,19.81 -0.63,-12.22 0.75,-11.92 2.4,-22.12 2.19,-13.46 -3.57,-17.91 10.06,-18.31l0 -4.06c-5.1,1.96 -4.88,0.51 -11.92,1.36 -2.5,9.63 -4.09,10.14 -10.05,15.17 -13.41,11.32 -5.97,9.5 -16.82,8.99 -2.12,-4.75 -2.27,-25.34 -5.23,-36.58 -2.36,2.17 -1.02,2.86 -4.67,6.88 -4.29,4.73 -2.7,4.78 -10.58,4.92l-2.12 3.38c6.16,1.34 1.63,-1.6 5.13,2.66 -2.28,5.27 -3.23,6.68 -5.58,10.19l-6.35 7.55c-1.2,-5.14 -2.36,-6.95 -3.57,-11.55 -2.92,-11.09 1.03,-7.46 -5.94,-19.68 -0.49,-0.85 -1.89,-3.21 -2.37,-3.95 -1.86,-2.8 -0.82,-1.72 -2.48,-3.08 -5.74,15.6 -5.03,6.32 -7.52,17.67 -1.54,6.97 -0.18,11.43 -5.19,20.29 -5.03,-3.02 -4.33,-4.1 -7.85,-9.63 -6.71,-10.55 -7.04,-18.33 -17.46,-26.78 -1.02,10.23 -1.45,10.02 -1.26,19.07 0.63,29.43 -12.33,16.48 -21.14,7.35 -12.57,-13.02 -4.89,-12.24 -15.53,-13.7 1.23,5.08 1.8,4.02 2.91,9.29 0.78,3.73 0.86,7.58 1.42,11.45 1.27,8.84 2.44,11.19 2.47,22.24 -13.34,-5.74 -19.95,-14.78 -33.27,-16.31 1.62,14.53 8.2,19.21 5.37,30.85 -12.56,2.24 -20.79,-8.05 -35.7,-8.57 1.76,4.1 2.63,5.51 4.42,9.36l11.73 17.86c1.18,2.21 1.9,3.58 3.78,6.96 -13.22,-0.37 -26.33,-5.28 -39.74,-3.14 1.57,4.19 0.84,2.08 3.44,5.64 0.11,0.15 3.71,4.28 3.94,4.49 8.93,8.4 31.89,7.74 39.18,6.23zm201.43 125.37c9.99,-13.51 22.19,-35.53 22.82,-58.54l-81.05 -0.59c7.38,9.79 50.9,55.95 58.23,59.13zm-58.13 -85.9l80.83 -0.29c-2.35,-20.98 -12.19,-46.28 -25,-57.66 -2.75,1.7 -52.13,48.22 -55.83,57.95zm-21.04 132.7c33.18,-5.07 36.26,-12.74 58.58,-22.51 -4.02,-8.94 -50.56,-55.25 -58.11,-59.34l-0.47 81.85zm-90.32 -213.59l28.08 29.07c9.28,9.65 18.29,21.51 29.39,28.39l0.38 -81.32c-24.16,3.1 -41.77,12.1 -57.85,23.86zm90.25 57.35c4.67,-2.62 54.83,-53.37 57.22,-57.35 -9.54,-10.36 -38.76,-21.78 -57.05,-23.81l-0.17 81.16zm-109.33 108.74l56.55 -57.6 -80.15 -0.15c-0.56,14.35 11.92,46 19.72,54.42 2.88,3.1 0.34,0.95 3.88,3.33z"/>
    <path class="fil1" d="M287.98 97.82c14.65,6.25 11.54,-3.15 39.97,-8.51 -6.26,20.29 -9.93,9.11 -16.39,24.92 -4.3,4.45 -5.26,6.37 -6.28,12.4l40.3 -4.43c-3.79,9.05 -13.95,14.16 -20.18,21.3 -4.63,5.3 -5.28,-1.9 -2.31,6.77 3.03,8.7 -5.26,2.84 8.36,6.09l15.05 6.24c2.92,5.24 2.33,1.11 -0.02,3.63 -4.14,4.47 -21.63,4.12 -19.03,15.79 2.1,9.4 19.76,6.01 32.48,14.82 -9.76,7.71 -29.62,6.61 -37.53,14.81 7.04,5.06 32.5,17.28 34.62,22.45l-41.62 5.07c3.98,6.02 19.49,18.76 27.24,27.52 -2.4,1.38 -1.14,1.24 -5.59,2.15 -4.76,0.97 -35.61,-7.79 -59.63,1.74 8.21,-0.42 24.62,2.35 30.4,5.83 6.08,3.65 12.99,15.65 14.4,23.22l-31.68 -9.17c-11.81,10.68 4.92,5.89 -13.06,9.33 11.48,-0.11 9.54,-0.83 14.48,6.96 -1.26,4.49 3.43,5.45 -7.41,5.59 14.01,5.42 6.07,3.89 13.24,15.1 -4.61,-0.99 -30.13,-19.57 -37.53,-22.77l0.81 8.51c-0.63,20.7 2.51,6.74 1.15,27.38 -13.27,-6.58 -10.77,-18.72 -27.17,-18.04 -6.96,7.78 -5.92,26.74 -7.09,36.65l-12.5 -25.82c-4.44,-6.76 -4.51,-5.64 -7.93,-7.38 -5.33,3.75 -4.66,-1.84 -7.14,19.35 -0.74,6.28 -3.5,13.95 -7.8,19.09l-8.61 -29.63c-0.13,-0.37 -1.62,-4.06 -1.77,-4.4 -2.04,-4.47 0.45,-0.77 -2.2,-3.96l-10.78 17.99c-2.93,5.65 -7.72,12.02 -11.38,16.82 0.39,-6.04 -1.66,-13.3 -2.18,-19.24 -0.54,-6.32 -1.01,-11.94 -2.33,-17.63 -13.24,-2.27 -14.09,7.48 -30.49,21.8 -1.25,-7.7 3.94,-29.84 -0.26,-38.3 -9.02,4.99 -23.18,13.75 -30.08,16.11 0.3,-8.25 2.31,-17.16 5.3,-24.03l42.88 0.69c-3.87,-4.52 -1.72,-3.11 -7.1,-4.69 -5.6,6.68 -22.94,3.31 -31.16,3.15 -9.47,-18.61 -18.33,-2.11 -38.55,-1.35 8.92,-9.27 1.93,-2.42 7.25,-12.85 4.47,-8.77 7.17,-7.03 8.35,-16.45 -12.66,-5.73 -23.68,0.63 -38.5,1.56 7.63,-10.62 21.34,-19.07 28.98,-31.01 -2.33,-0.23 -37.69,-3.14 -38.53,-5.55 -0.19,-0.53 -0.87,-0.36 -1.26,-0.62l28.22 -15.73c1.64,-5.6 -0.3,-5.6 -1.15,-7.13l-8.46 0.46c-5.86,7.57 -10.65,8.72 -20.5,14.6 -6.48,3.88 -18.3,9.33 -21.83,14.15 4.72,2.27 40.13,4.24 48.68,4.24l-34.35 35.5c16.37,0.48 33.8,-5.53 49.17,-5.87 -5.99,11.32 -22.97,31.9 -25.4,42.33 13.58,-3.16 33.31,-13.84 46.56,-16.93 -4.01,17.23 -13.06,32.08 -16.93,48.69 10.75,-5.69 27.54,-19.7 42.33,-27.52 0,19.42 -4.23,29.26 -4.23,48.68 14.08,-9.42 21.52,-26.3 35.98,-35.98 0,17.08 4.24,32.47 4.24,50.8 10.93,-8.01 16.45,-32.81 27.51,-40.22 0.37,4.37 9.27,38.27 14.82,42.34 1.92,-4 12.29,-37.45 12.7,-42.34 6.2,4.54 8.84,12.02 12.81,18.94 10.28,17.93 6.29,16.92 14.71,19.16 0,-18.94 2.88,-32.42 4.23,-48.68 9.78,6.54 26.04,32.38 35.99,35.98 -0.34,-15.18 -6.03,-33.98 -6.35,-48.68 8.27,2.21 33.43,21.56 42.33,27.52l-16.93 -48.69c15.61,3.64 34.11,15.72 48.68,16.93 -8.81,-13.15 -20.16,-28.42 -27.52,-42.33 15.37,0.34 32.8,6.35 48.69,6.35l-34.36 -35.5 43.07 -2.8c11.2,-1.97 6.41,-3.21 -15.46,-16.34 -6.64,-3.98 -14.47,-7.39 -18.65,-13.1 16.01,-3.73 28.44,-8.97 44.45,-12.7l0 -4.23c-14.95,-1.24 -29.51,-11.46 -44.45,-12.7l0 -4.23c6.32,-1.48 15.25,-7.36 21.05,-10.7 17.94,-10.32 16.9,-6.24 19.16,-14.7 -17.71,0 -33.04,-2.94 -48.68,-4.24 3.98,-5.44 28.27,-24.46 35.98,-35.98 -14.73,1.22 -33.97,6.35 -48.68,6.35 7.95,-15.04 19.28,-26.77 27.52,-42.34 -16.61,3.87 -31.46,12.92 -48.69,16.94 3.26,-6.8 16.34,-39.38 16.94,-46.57 -12.68,3.38 -29.66,22.01 -42.34,25.4 0.7,-8.36 3.6,-17.42 4.24,-26 -13.63,0.4 -7.87,4.85 -10.06,18.31 -1.65,10.2 -3.03,9.9 -2.4,22.12 12.16,-3.8 19.05,-15.66 34.66,-19.81 -2.07,11.19 -7.19,21.77 -9.49,31.25z"/>
    <path class="fil1" d="M33.42 207.42c0.62,-0.11 4.91,-0.67 5.09,-0.74 0.49,-0.18 1.11,-0.41 1.63,-0.64 0.58,-0.26 1.19,-0.62 1.74,-0.89l-15.32 -8.34c25.74,-7.92 28.81,-5.69 28.65,-23.25 -8.62,-0.18 -23.12,-9.11 -27.9,-16.55 29.57,-2.51 37.05,2.51 36.27,-14.51 0,-0.15 -0.15,-0.73 0.02,-1.03l21.46 0.08 1.66 -2.78c-7.29,1.51 -30.25,2.17 -39.18,-6.23 -0.23,-0.21 -3.83,-4.34 -3.94,-4.49 -2.6,-3.56 -1.87,-1.45 -3.44,-5.64 13.41,-2.14 26.52,2.77 39.74,3.14 -1.88,-3.38 -2.6,-4.75 -3.78,-6.96l-11.73 -17.86c-1.79,-3.85 -2.66,-5.26 -4.42,-9.36 14.91,0.52 23.14,10.81 35.7,8.57 2.83,-11.64 -3.75,-16.32 -5.37,-30.85 13.32,1.53 19.93,10.57 33.27,16.31 -0.03,-11.05 -1.2,-13.4 -2.47,-22.24 -0.56,-3.87 -0.64,-7.72 -1.42,-11.45 -1.11,-5.27 -1.68,-4.21 -2.91,-9.29 10.64,1.46 2.96,0.68 15.53,13.7 8.81,9.13 21.77,22.08 21.14,-7.35 -0.19,-9.05 0.24,-8.84 1.26,-19.07 10.42,8.45 10.75,16.23 17.46,26.78 3.52,5.53 2.82,6.61 7.85,9.63 5.01,-8.86 3.65,-13.32 5.19,-20.29 2.49,-11.35 1.78,-2.07 7.52,-17.67 1.66,1.36 0.62,0.28 2.48,3.08 0.48,0.74 1.88,3.1 2.37,3.95 6.97,12.22 3.02,8.59 5.94,19.68 1.21,4.6 2.37,6.41 3.57,11.55l6.35 -7.55c2.35,-3.51 3.3,-4.92 5.58,-10.19 -3.5,-4.26 1.03,-1.32 -5.13,-2.66 -0.62,0.98 -3.89,4.33 -4.23,4.77l-14.82 -46.57c-5.12,3.75 -15,38.29 -16.93,46.57l-6.78 -10.16c-2.3,-3.82 -4.04,-6.83 -6.32,-10.61 -3.76,-6.23 -9.53,-17.98 -14.42,-21.56 -2.99,6.23 -4.23,39.83 -4.23,50.8 -20.67,-13.84 -24.04,-32.23 -38.1,-35.99 0.34,15.56 6.35,31.03 6.35,48.69 -11.32,-5.99 -31.9,-22.97 -42.34,-25.4 3.84,16.48 13.1,30.08 16.94,46.57 -16.15,-3.77 -32.54,-13.18 -48.69,-16.94 4.1,7.74 8.36,12.46 13.56,20.32l13.96 22.02c-15.18,-0.34 -33.98,-6.03 -48.68,-6.35 4.8,7.16 11.11,12.14 17.44,18.54 6.88,6.96 13.76,10.3 18.54,17.44 -15.64,1.3 -30.97,4.24 -48.68,4.24 2.29,8.57 1.52,4.29 17.83,13.91 6.26,3.69 16.18,10.04 22.38,11.49l0 4.23c-8.01,0.67 -41.44,9.94 -46.56,16.93 10.59,0.89 22.03,6.53 33.32,8.47z"/>
    <path class="fil2" d="M261.07 313.18c-16.96,2.43 -42.98,3.36 -61.48,2.09 -22.39,-1.54 -42.99,9.87 -56.73,-0.27l31.3 -1.73c-2.5,2.34 -17.85,1.8 -23.82,1.85l-21.71 1.51c-2.08,-3.51 0.2,2.71 -2.61,-5.37 -0.86,-2.46 -0.69,-3.65 -1.03,-5.89 -4.68,-1.58 -0.26,-0.66 -2.4,2.49 4.2,8.46 -0.99,30.6 0.26,38.3 16.4,-14.32 17.25,-24.07 30.49,-21.8 1.32,5.69 1.79,11.31 2.33,17.63 0.52,5.94 2.57,13.2 2.18,19.24 3.66,-4.8 8.45,-11.17 11.38,-16.82l10.78 -17.99c2.65,3.19 0.16,-0.51 2.2,3.96 0.15,0.34 1.64,4.03 1.77,4.4l8.61 29.63c4.3,-5.14 7.06,-12.81 7.8,-19.09 2.48,-21.19 1.81,-15.6 7.14,-19.35 3.42,1.74 3.49,0.62 7.93,7.38l12.5 25.82c1.17,-9.91 0.13,-28.87 7.09,-36.65 16.4,-0.68 13.9,11.46 27.17,18.04 1.36,-20.64 -1.78,-6.68 -1.15,-27.38z"/>
    <path class="fil2" d="M109.67 177.82l42.85 4.19 -19.67 4.45c-0.66,0.1 -4.15,0.2 -4.85,0.18l-68.64 -1.16c-0.2,-0.61 -0.27,-1.38 -0.41,-1.88 -0.14,-0.51 -0.3,-1.29 -0.49,-1.9l-3.25 -8.14c0.16,17.56 -2.91,15.33 -28.65,23.25l15.32 8.34c-0.55,0.27 -1.16,0.63 -1.74,0.89 -0.52,0.23 -1.14,0.46 -1.63,0.64 -0.18,0.07 -4.47,0.63 -5.09,0.74 3.69,3.09 9.92,3.88 15.36,3l8.46 -0.46c0.85,1.53 2.79,1.53 1.15,7.13 9.81,-3.76 3.19,0.38 6.13,-5.44l-5.76 -3.25c-0.06,-0.03 -5.8,-2.04 -7.86,-3.09l0.55 -3.23c-2.1,-7.37 -1.22,-5.65 -4.8,-3.14 18.73,-1.79 30.01,0.75 45.92,-3.16 43.61,-10.72 75.41,11.99 107.12,-7.41 -2.79,-5.58 -2.45,1.06 -7.35,-6.74 -0.1,-0.15 -0.29,-0.71 -0.36,-0.85 -0.06,-0.13 -0.15,-0.66 -0.2,-0.77 -1.54,-3.48 -2.79,-4.1 -9.29,-5.01 -5.99,-0.84 -10.78,-0.17 -17.56,-1.49 -10.53,-2.04 -5.69,-4.05 -15.8,-5.74 2.44,4.48 3.5,4.77 6.02,10.49l-45.48 -0.44z"/>
    <path class="fil0" d="M55.21 173.56l3.25 8.14c0.19,0.61 0.35,1.39 0.49,1.9 0.14,0.5 0.21,1.27 0.41,1.88l68.64 1.16c0.7,0.02 4.19,-0.08 4.85,-0.18l19.67 -4.45 -42.85 -4.19 -35.69 -1.08 11.08 -35.19 -21.46 -0.08c-0.17,0.3 -0.02,0.88 -0.02,1.03 0.78,17.02 -6.7,12 -36.27,14.51 4.78,7.44 19.28,16.37 27.9,16.55z"/>
    <path class="fil1" d="M216 42.63c7.88,-0.14 6.29,-0.19 10.58,-4.92 3.65,-4.02 2.31,-4.71 4.67,-6.88 2.96,11.24 3.11,31.83 5.23,36.58 10.85,0.51 3.41,2.33 16.82,-8.99 5.96,-5.03 7.55,-5.54 10.05,-15.17 7.04,-0.85 6.82,0.6 11.92,-1.36 1.97,-6 2.11,-10.2 2.11,-18.63l-35.5 34.36c-0.48,-15.05 -4.41,-35.31 -4.71,-49.17 -6.81,4.99 -16.87,25.33 -21.17,34.18z"/>
    <path class="fil2" d="M287.98 97.82c2.67,9.19 -0.9,7.36 -10.66,8.49 12.65,10.46 7.11,5.47 34.24,7.92 6.46,-15.81 10.13,-4.63 16.39,-24.92 -28.43,5.36 -25.32,14.76 -39.97,8.51z"/>
    <path class="fil3" d="M238.51 193.21c-3.19,1.23 -5.93,2.09 -8.77,3.13 -9.75,3.55 -2.82,-1.81 -7.89,4.73l8.29 1.27c7.06,-0.56 4.25,-0.98 9.21,-2.69 12.12,-4.2 6.46,0.06 14.31,-9.16l-14.63 -6.81c-0.14,0.11 -2.83,-3.8 -0.52,9.53z"/>
   </g>
   <g>
    <path class="fil0" d="M86.72 138.77c4.49,-7.94 7.04,-12.62 12.86,-17.79 8.03,5.33 16.12,14.89 24.88,23.47 6.22,6.1 17.54,19.72 24.67,23.32 10.11,1.69 5.27,3.7 15.8,5.74 6.78,1.32 11.57,0.65 17.56,1.49 6.5,0.91 7.75,1.53 9.29,5.01 0.05,0.11 0.14,0.64 0.2,0.77 0.07,0.14 0.26,0.7 0.36,0.85 4.9,7.8 4.56,1.16 7.35,6.74 -31.71,19.4 -63.51,-3.31 -107.12,7.41 -15.91,3.91 -27.19,1.37 -45.92,3.16 3.58,-2.51 2.7,-4.23 4.8,3.14l-0.55 3.23c2.06,1.05 7.8,3.06 7.86,3.09l5.76 3.25c-2.94,5.82 3.68,1.68 -6.13,5.44l-28.22 15.73c0.39,0.26 1.07,0.09 1.26,0.62 0.84,2.41 36.2,5.32 38.53,5.55 -7.64,11.94 -21.35,20.39 -28.98,31.01 14.82,-0.93 25.84,-7.29 38.5,-1.56 -1.18,9.42 -3.88,7.68 -8.35,16.45 -5.32,10.43 1.67,3.58 -7.25,12.85 20.22,-0.76 29.08,-17.26 38.55,1.35 8.22,0.16 25.56,3.53 31.16,-3.15 -7.36,-2.98 -10.22,-4.7 -14.41,-10.2 10.68,-10.72 48.27,-50.75 57.59,-56.46l0.12 81.25c-14.6,-1.57 -23.65,-6.14 -36.2,-9.9l-42.88 -0.69c-2.99,6.87 -5,15.78 -5.3,24.03 6.9,-2.36 21.06,-11.12 30.08,-16.11 2.14,-3.15 -2.28,-4.07 2.4,-2.49 0.34,2.24 0.17,3.43 1.03,5.89 2.81,8.08 0.53,1.86 2.61,5.37l21.71 -1.51c5.97,-0.05 21.32,0.49 23.82,-1.85l-31.3 1.73c13.74,10.14 34.34,-1.27 56.73,0.27 18.5,1.27 44.52,0.34 61.48,-2.09l-0.81 -8.51c7.4,3.2 32.92,21.78 37.53,22.77 -7.17,-11.21 0.77,-9.68 -13.24,-15.1 10.84,-0.14 6.15,-1.1 7.41,-5.59 -4.94,-7.79 -3,-7.07 -14.48,-6.96 17.98,-3.44 1.25,1.35 13.06,-9.33l31.68 9.17c-1.41,-7.57 -8.32,-19.57 -14.4,-23.22 -5.78,-3.48 -22.19,-6.25 -30.4,-5.83 24.02,-9.53 54.87,-0.77 59.63,-1.74 4.45,-0.91 3.19,-0.77 5.59,-2.15 -7.75,-8.76 -23.26,-21.5 -27.24,-27.52l41.62 -5.07c-2.12,-5.17 -27.58,-17.39 -34.62,-22.45 7.91,-8.2 27.77,-7.1 37.53,-14.81 -12.72,-8.81 -30.38,-5.42 -32.48,-14.82 -2.6,-11.67 14.89,-11.32 19.03,-15.79 2.35,-2.52 2.94,1.61 0.02,-3.63l-15.05 -6.24c-13.62,-3.25 -5.33,2.61 -8.36,-6.09 -2.97,-8.67 -2.32,-1.47 2.31,-6.77 6.23,-7.14 16.39,-12.25 20.18,-21.3l-40.3 4.43c1.02,-6.03 1.98,-7.95 6.28,-12.4 -27.13,-2.45 -21.59,2.54 -34.24,-7.92 9.76,-1.13 13.33,0.7 10.66,-8.49 2.3,-9.48 7.42,-20.06 9.49,-31.25 -15.61,4.15 -22.5,16.01 -34.66,19.81 -0.63,-12.22 0.75,-11.92 2.4,-22.12 2.19,-13.46 -3.57,-17.91 10.06,-18.31l0 -4.06c-5.1,1.96 -4.88,0.51 -11.92,1.36 -2.5,9.63 -4.09,10.14 -10.05,15.17 -13.41,11.32 -5.97,9.5 -16.82,8.99 -2.12,-4.75 -2.27,-25.34 -5.23,-36.58 -2.36,2.17 -1.02,2.86 -4.67,6.88 -4.29,4.73 -2.7,4.78 -10.58,4.92l-2.12 3.38c6.16,1.34 1.63,-1.6 5.13,2.66 -2.28,5.27 -3.23,6.68 -5.58,10.19l-6.35 7.55c-1.2,-5.14 -2.36,-6.95 -3.57,-11.55 -2.92,-11.09 1.03,-7.46 -5.94,-19.68 -0.49,-0.85 -1.89,-3.21 -2.37,-3.95 -1.86,-2.8 -0.82,-1.72 -2.48,-3.08 -5.74,15.6 -5.03,6.32 -7.52,17.67 -1.54,6.97 -0.18,11.43 -5.19,20.29 -5.03,-3.02 -4.33,-4.1 -7.85,-9.63 -6.71,-10.55 -7.04,-18.33 -17.46,-26.78 -1.02,10.23 -1.45,10.02 -1.26,19.07 0.63,29.43 -12.33,16.48 -21.14,7.35 -12.57,-13.02 -4.89,-12.24 -15.53,-13.7 1.23,5.08 1.8,4.02 2.91,9.29 0.78,3.73 0.86,7.58 1.42,11.45 1.27,8.84 2.44,11.19 2.47,22.24 -13.34,-5.74 -19.95,-14.78 -33.27,-16.31 1.62,14.53 8.2,19.21 5.37,30.85 -12.56,2.24 -20.79,-8.05 -35.7,-8.57 1.76,4.1 2.63,5.51 4.42,9.36l11.73 17.86c1.18,2.21 1.9,3.58 3.78,6.96 -13.22,-0.37 -26.33,-5.28 -39.74,-3.14 1.57,4.19 0.84,2.08 3.44,5.64 0.11,0.15 3.71,4.28 3.94,4.49 8.93,8.4 31.89,7.74 39.18,6.23zm201.43 125.37c9.99,-13.51 22.19,-35.53 22.82,-58.54l-81.05 -0.59c7.38,9.79 50.9,55.95 58.23,59.13zm-58.13 -85.9l80.83 -0.29c-2.35,-20.98 -12.19,-46.28 -25,-57.66 -2.75,1.7 -52.13,48.22 -55.83,57.95zm-21.04 132.7c33.18,-5.07 36.26,-12.74 58.58,-22.51 -4.02,-8.94 -50.56,-55.25 -58.11,-59.34l-0.47 81.85zm-90.32 -213.59l28.08 29.07c9.28,9.65 18.29,21.51 29.39,28.39l0.38 -81.32c-24.16,3.1 -41.77,12.1 -57.85,23.86zm90.25 57.35c4.67,-2.62 54.83,-53.37 57.22,-57.35 -9.54,-10.36 -38.76,-21.78 -57.05,-23.81l-0.17 81.16zm-109.33 108.74l56.55 -57.6 -80.15 -0.15c-0.56,14.35 11.92,46 19.72,54.42 2.88,3.1 0.34,0.95 3.88,3.33z"/>
    <path class="fil1" d="M287.98 97.82c14.65,6.25 11.54,-3.15 39.97,-8.51 -6.26,20.29 -9.93,9.11 -16.39,24.92 -4.3,4.45 -5.26,6.37 -6.28,12.4l40.3 -4.43c-3.79,9.05 -13.95,14.16 -20.18,21.3 -4.63,5.3 -5.28,-1.9 -2.31,6.77 3.03,8.7 -5.26,2.84 8.36,6.09l15.05 6.24c2.92,5.24 2.33,1.11 -0.02,3.63 -4.14,4.47 -21.63,4.12 -19.03,15.79 2.1,9.4 19.76,6.01 32.48,14.82 -9.76,7.71 -29.62,6.61 -37.53,14.81 7.04,5.06 32.5,17.28 34.62,22.45l-41.62 5.07c3.98,6.02 19.49,18.76 27.24,27.52 -2.4,1.38 -1.14,1.24 -5.59,2.15 -4.76,0.97 -35.61,-7.79 -59.63,1.74 8.21,-0.42 24.62,2.35 30.4,5.83 6.08,3.65 12.99,15.65 14.4,23.22l-31.68 -9.17c-11.81,10.68 4.92,5.89 -13.06,9.33 11.48,-0.11 9.54,-0.83 14.48,6.96 -1.26,4.49 3.43,5.45 -7.41,5.59 14.01,5.42 6.07,3.89 13.24,15.1 -4.61,-0.99 -30.13,-19.57 -37.53,-22.77l0.81 8.51c-0.63,20.7 2.51,6.74 1.15,27.38 -13.27,-6.58 -10.77,-18.72 -27.17,-18.04 -6.96,7.78 -5.92,26.74 -7.09,36.65l-12.5 -25.82c-4.44,-6.76 -4.51,-5.64 -7.93,-7.38 -5.33,3.75 -4.66,-1.84 -7.14,19.35 -0.74,6.28 -3.5,13.95 -7.8,19.09l-8.61 -29.63c-0.13,-0.37 -1.62,-4.06 -1.77,-4.4 -2.04,-4.47 0.45,-0.77 -2.2,-3.96l-10.78 17.99c-2.93,5.65 -7.72,12.02 -11.38,16.82 0.39,-6.04 -1.66,-13.3 -2.18,-19.24 -0.54,-6.32 -1.01,-11.94 -2.33,-17.63 -13.24,-2.27 -14.09,7.48 -30.49,21.8 -1.25,-7.7 3.94,-29.84 -0.26,-38.3 -9.02,4.99 -23.18,13.75 -30.08,16.11 0.3,-8.25 2.31,-17.16 5.3,-24.03l42.88 0.69c-3.87,-4.52 -1.72,-3.11 -7.1,-4.69 -5.6,6.68 -22.94,3.31 -31.16,3.15 -9.47,-18.61 -18.33,-2.11 -38.55,-1.35 8.92,-9.27 1.93,-2.42 7.25,-12.85 4.47,-8.77 7.17,-7.03 8.35,-16.45 -12.66,-5.73 -23.68,0.63 -38.5,1.56 7.63,-10.62 21.34,-19.07 28.98,-31.01 -2.33,-0.23 -37.69,-3.14 -38.53,-5.55 -0.19,-0.53 -0.87,-0.36 -1.26,-0.62l28.22 -15.73c1.64,-5.6 -0.3,-5.6 -1.15,-7.13l-8.46 0.46c-5.86,7.57 -10.65,8.72 -20.5,14.6 -6.48,3.88 -18.3,9.33 -21.83,14.15 4.72,2.27 40.13,4.24 48.68,4.24l-34.35 35.5c16.37,0.48 33.8,-5.53 49.17,-5.87 -5.99,11.32 -22.97,31.9 -25.4,42.33 13.58,-3.16 33.31,-13.84 46.56,-16.93 -4.01,17.23 -13.06,32.08 -16.93,48.69 10.75,-5.69 27.54,-19.7 42.33,-27.52 0,19.42 -4.23,29.26 -4.23,48.68 14.08,-9.42 21.52,-26.3 35.98,-35.98 0,17.08 4.24,32.47 4.24,50.8 10.93,-8.01 16.45,-32.81 27.51,-40.22 0.37,4.37 9.27,38.27 14.82,42.34 1.92,-4 12.29,-37.45 12.7,-42.34 6.2,4.54 8.84,12.02 12.81,18.94 10.28,17.93 6.29,16.92 14.71,19.16 0,-18.94 2.88,-32.42 4.23,-48.68 9.78,6.54 26.04,32.38 35.99,35.98 -0.34,-15.18 -6.03,-33.98 -6.35,-48.68 8.27,2.21 33.43,21.56 42.33,27.52l-16.93 -48.69c15.61,3.64 34.11,15.72 48.68,16.93 -8.81,-13.15 -20.16,-28.42 -27.52,-42.33 15.37,0.34 32.8,6.35 48.69,6.35l-34.36 -35.5 43.07 -2.8c11.2,-1.97 6.41,-3.21 -15.46,-16.34 -6.64,-3.98 -14.47,-7.39 -18.65,-13.1 16.01,-3.73 28.44,-8.97 44.45,-12.7l0 -4.23c-14.95,-1.24 -29.51,-11.46 -44.45,-12.7l0 -4.23c6.32,-1.48 15.25,-7.36 21.05,-10.7 17.94,-10.32 16.9,-6.24 19.16,-14.7 -17.71,0 -33.04,-2.94 -48.68,-4.24 3.98,-5.44 28.27,-24.46 35.98,-35.98 -14.73,1.22 -33.97,6.35 -48.68,6.35 7.95,-15.04 19.28,-26.77 27.52,-42.34 -16.61,3.87 -31.46,12.92 -48.69,16.94 3.26,-6.8 16.34,-39.38 16.94,-46.57 -12.68,3.38 -29.66,22.01 -42.34,25.4 0.7,-8.36 3.6,-17.42 4.24,-26 -13.63,0.4 -7.87,4.85 -10.06,18.31 -1.65,10.2 -3.03,9.9 -2.4,22.12 12.16,-3.8 19.05,-15.66 34.66,-19.81 -2.07,11.19 -7.19,21.77 -9.49,31.25z"/>
    <path class="fil1" d="M33.42 207.42c0.62,-0.11 4.91,-0.67 5.09,-0.74 0.49,-0.18 1.11,-0.41 1.63,-0.64 0.58,-0.26 1.19,-0.62 1.74,-0.89l-15.32 -8.34c25.74,-7.92 28.81,-5.69 28.65,-23.25 -8.62,-0.18 -23.12,-9.11 -27.9,-16.55 29.57,-2.51 37.05,2.51 36.27,-14.51 0,-0.15 -0.15,-0.73 0.02,-1.03l21.46 0.08 1.66 -2.78c-7.29,1.51 -30.25,2.17 -39.18,-6.23 -0.23,-0.21 -3.83,-4.34 -3.94,-4.49 -2.6,-3.56 -1.87,-1.45 -3.44,-5.64 13.41,-2.14 26.52,2.77 39.74,3.14 -1.88,-3.38 -2.6,-4.75 -3.78,-6.96l-11.73 -17.86c-1.79,-3.85 -2.66,-5.26 -4.42,-9.36 14.91,0.52 23.14,10.81 35.7,8.57 2.83,-11.64 -3.75,-16.32 -5.37,-30.85 13.32,1.53 19.93,10.57 33.27,16.31 -0.03,-11.05 -1.2,-13.4 -2.47,-22.24 -0.56,-3.87 -0.64,-7.72 -1.42,-11.45 -1.11,-5.27 -1.68,-4.21 -2.91,-9.29 10.64,1.46 2.96,0.68 15.53,13.7 8.81,9.13 21.77,22.08 21.14,-7.35 -0.19,-9.05 0.24,-8.84 1.26,-19.07 10.42,8.45 10.75,16.23 17.46,26.78 3.52,5.53 2.82,6.61 7.85,9.63 5.01,-8.86 3.65,-13.32 5.19,-20.29 2.49,-11.35 1.78,-2.07 7.52,-17.67 1.66,1.36 0.62,0.28 2.48,3.08 0.48,0.74 1.88,3.1 2.37,3.95 6.97,12.22 3.02,8.59 5.94,19.68 1.21,4.6 2.37,6.41 3.57,11.55l6.35 -7.55c2.35,-3.51 3.3,-4.92 5.58,-10.19 -3.5,-4.26 1.03,-1.32 -5.13,-2.66 -0.62,0.98 -3.89,4.33 -4.23,4.77l-14.82 -46.57c-5.12,3.75 -15,38.29 -16.93,46.57l-6.78 -10.16c-2.3,-3.82 -4.04,-6.83 -6.32,-10.61 -3.76,-6.23 -9.53,-17.98 -14.42,-21.56 -2.99,6.23 -4.23,39.83 -4.23,50.8 -20.67,-13.84 -24.04,-32.23 -38.1,-35.99 0.34,15.56 6.35,31.03 6.35,48.69 -11.32,-5.99 -31.9,-22.97 -42.34,-25.4 3.84,16.48 13.1,30.08 16.94,46.57 -16.15,-3.77 -32.54,-13.18 -48.69,-16.94 4.1,7.74 8.36,12.46 13.56,20.32l13.96 22.02c-15.18,-0.34 -33.98,-6.03 -48.68,-6.35 4.8,7.16 11.11,12.14 17.44,18.54 6.88,6.96 13.76,10.3 18.54,17.44 -15.64,1.3 -30.97,4.24 -48.68,4.24 2.29,8.57 1.52,4.29 17.83,13.91 6.26,3.69 16.18,10.04 22.38,11.49l0 4.23c-8.01,0.67 -41.44,9.94 -46.56,16.93 10.59,0.89 22.03,6.53 33.32,8.47z"/>
    <path class="fil2" d="M261.07 313.18c-16.96,2.43 -42.98,3.36 -61.48,2.09 -22.39,-1.54 -42.99,9.87 -56.73,-0.27l31.3 -1.73c-2.5,2.34 -17.85,1.8 -23.82,1.85l-21.71 1.51c-2.08,-3.51 0.2,2.71 -2.61,-5.37 -0.86,-2.46 -0.69,-3.65 -1.03,-5.89 -4.68,-1.58 -0.26,-0.66 -2.4,2.49 4.2,8.46 -0.99,30.6 0.26,38.3 16.4,-14.32 17.25,-24.07 30.49,-21.8 1.32,5.69 1.79,11.31 2.33,17.63 0.52,5.94 2.57,13.2 2.18,19.24 3.66,-4.8 8.45,-11.17 11.38,-16.82l10.78 -17.99c2.65,3.19 0.16,-0.51 2.2,3.96 0.15,0.34 1.64,4.03 1.77,4.4l8.61 29.63c4.3,-5.14 7.06,-12.81 7.8,-19.09 2.48,-21.19 1.81,-15.6 7.14,-19.35 3.42,1.74 3.49,0.62 7.93,7.38l12.5 25.82c1.17,-9.91 0.13,-28.87 7.09,-36.65 16.4,-0.68 13.9,11.46 27.17,18.04 1.36,-20.64 -1.78,-6.68 -1.15,-27.38z"/>
    <path class="fil2" d="M109.67 177.82l42.85 4.19 -19.67 4.45c-0.66,0.1 -4.15,0.2 -4.85,0.18l-68.64 -1.16c-0.2,-0.61 -0.27,-1.38 -0.41,-1.88 -0.14,-0.51 -0.3,-1.29 -0.49,-1.9l-3.25 -8.14c0.16,17.56 -2.91,15.33 -28.65,23.25l15.32 8.34c-0.55,0.27 -1.16,0.63 -1.74,0.89 -0.52,0.23 -1.14,0.46 -1.63,0.64 -0.18,0.07 -4.47,0.63 -5.09,0.74 3.69,3.09 9.92,3.88 15.36,3l8.46 -0.46c0.85,1.53 2.79,1.53 1.15,7.13 9.81,-3.76 3.19,0.38 6.13,-5.44l-5.76 -3.25c-0.06,-0.03 -5.8,-2.04 -7.86,-3.09l0.55 -3.23c-2.1,-7.37 -1.22,-5.65 -4.8,-3.14 18.73,-1.79 30.01,0.75 45.92,-3.16 43.61,-10.72 75.41,11.99 107.12,-7.41 -2.79,-5.58 -2.45,1.06 -7.35,-6.74 -0.1,-0.15 -0.29,-0.71 -0.36,-0.85 -0.06,-0.13 -0.15,-0.66 -0.2,-0.77 -1.54,-3.48 -2.79,-4.1 -9.29,-5.01 -5.99,-0.84 -10.78,-0.17 -17.56,-1.49 -10.53,-2.04 -5.69,-4.05 -15.8,-5.74 2.44,4.48 3.5,4.77 6.02,10.49l-45.48 -0.44z"/>
    <path class="fil0" d="M55.21 173.56l3.25 8.14c0.19,0.61 0.35,1.39 0.49,1.9 0.14,0.5 0.21,1.27 0.41,1.88l68.64 1.16c0.7,0.02 4.19,-0.08 4.85,-0.18l19.67 -4.45 -42.85 -4.19 -35.69 -1.08 11.08 -35.19 -21.46 -0.08c-0.17,0.3 -0.02,0.88 -0.02,1.03 0.78,17.02 -6.7,12 -36.27,14.51 4.78,7.44 19.28,16.37 27.9,16.55z"/>
    <path class="fil1" d="M216 42.63c7.88,-0.14 6.29,-0.19 10.58,-4.92 3.65,-4.02 2.31,-4.71 4.67,-6.88 2.96,11.24 3.11,31.83 5.23,36.58 10.85,0.51 3.41,2.33 16.82,-8.99 5.96,-5.03 7.55,-5.54 10.05,-15.17 7.04,-0.85 6.82,0.6 11.92,-1.36 1.97,-6 2.11,-10.2 2.11,-18.63l-35.5 34.36c-0.48,-15.05 -4.41,-35.31 -4.71,-49.17 -6.81,4.99 -16.87,25.33 -21.17,34.18z"/>
    <path class="fil2" d="M287.98 97.82c2.67,9.19 -0.9,7.36 -10.66,8.49 12.65,10.46 7.11,5.47 34.24,7.92 6.46,-15.81 10.13,-4.63 16.39,-24.92 -28.43,5.36 -25.32,14.76 -39.97,8.51z"/>
    <path class="fil3" d="M238.51 193.21c-3.19,1.23 -5.93,2.09 -8.77,3.13 -9.75,3.55 -2.82,-1.81 -7.89,4.73l8.29 1.27c7.06,-0.56 4.25,-0.98 9.21,-2.69 12.12,-4.2 6.46,0.06 14.31,-9.16l-14.63 -6.81c-0.14,0.11 -2.83,-3.8 -0.52,9.53z"/>
   </g>
  </g>
 </g>
</svg>
